# xmcd
#
# Track frame offsets: 
#        150
#        13148
#        24006
#        37279
#        51234
#        63857
#        77295
#        88906
#        101512
#        113609
#        130655
#        143302
#
# Disc length: 2060 seconds
#
# Revision: 1
# Processed by: cddbd v1.5.1PL0 Copyright (c) Steve Scherf et al.
# Submitted via: ExactAudioCopy v0.95a5
#
DISCID=8a080a0c
DTITLE=Los Traileros Del Norte - Recordando
DYEAR=2002
DGENRE=Norteña
TTITLE0=Me va y me viene
TTITLE1=Ayúdame
TTITLE2=Juguete preferido
TTITLE3=Tiempo perdido
TTITLE4=Perdóname
TTITLE5=Recordando tu amor
TTITLE6=Y para qué?
TTITLE7=Quiero que vuelvas
TTITLE8=Triste verdad
TTITLE9=Apoco no?
TTITLE10=Con todas las ganas
TTITLE11=Atado en esta cruz
EXTD=
EXTT0=
EXTT1=
EXTT2=
EXTT3=
EXTT4=
EXTT5=
EXTT6=
EXTT7=
EXTT8=
EXTT9=
EXTT10=
EXTT11=
PLAYORDER=
